<!-- Generated by IcoMoon.io -->
<svg version="1.1" xmlns="http://www.w3.org/2000/svg" width="1024" height="1024" viewBox="0 0 1024 1024">
<title></title>
<g id="icomoon-ignore">
</g>
<path fill="#000" d="M502.415 24.517c-262.911 0-476.89 214.081-476.89 476.89s214.081 476.89 476.89 476.89 476.89-214.081 476.89-476.89-214.081-476.89-476.89-476.89zM501.71 66.89c16.922 0.453 30.468 14.322 30.468 31.365 0 0.004 0 0.007 0 0.011v0c0 17.328-14.047 31.376-31.376 31.376s-31.376-14.047-31.376-31.376v0c0-0.004 0-0.009 0-0.013 0-17.328 14.047-31.376 31.376-31.376 0.319 0 0.637 0.004 0.955 0.014l-0.047-0.001zM573.541 118.544c113.904 21.877 208.31 91.316 263.33 186.396l0.992 1.857-37.026 83.534c-6.356 14.427 0.201 31.376 14.528 37.833l71.225 31.578c1.202 11.433 1.887 24.701 1.887 38.128 0 10.157-0.392 20.222-1.162 30.182l0.082-1.321h-39.649c-3.934 0-5.549 2.623-5.549 6.457v18.16c0 42.776-24.112 52.158-45.298 54.479-20.177 2.321-42.473-8.474-45.298-20.783-11.904-66.888-31.678-81.112-62.953-105.83 38.842-24.616 79.195-61.036 79.195-109.664 0-52.562-36.017-85.652-60.532-101.895-34.503-22.699-72.638-27.239-82.928-27.239h-409.599c55.299-61.588 129.568-105.147 213.563-121.476l2.435-0.394 48.324 50.645c10.896 11.401 28.955 11.904 40.354 0.908zM127.623 350.783c16.934 0.505 30.468 14.353 30.468 31.362 0 0.004 0 0.010 0 0.014v-0.001c0 17.328-14.047 31.376-31.376 31.376s-31.376-14.047-31.376-31.376v0c0-0.004 0-0.009 0-0.013 0-17.328 14.047-31.376 31.376-31.376 0.319 0 0.637 0.004 0.955 0.014l-0.047-0.001zM875.696 352.196c16.934 0.505 30.468 14.353 30.468 31.362 0 0.004 0 0.010 0 0.014v-0.001c0 17.328-14.047 31.376-31.376 31.376s-31.376-14.047-31.376-31.376v0c0-0.004 0-0.009 0-0.013 0-17.328 14.047-31.376 31.376-31.376 0.319 0 0.637 0.004 0.955 0.014l-0.047-0.001zM186.743 357.241h54.68v246.567h-110.37c-9.371-31.683-14.763-68.084-14.763-105.744 0-14.672 0.819-29.155 2.412-43.401l-0.159 1.751 67.593-30.064c14.427-6.457 20.984-23.305 14.528-37.732zM414.947 359.863h130.244c6.759 0 47.517 7.769 47.517 38.337 0 25.323-31.274 34.402-57.001 34.402h-120.862zM414.947 537.020h99.777c9.080 0 48.729 2.623 61.34 53.268 3.934 15.536 12.712 66.182 18.665 82.424 5.953 18.16 30.064 54.479 55.79 54.479h162.83c-11.45 15.251-23.155 28.747-35.729 41.378l0.014-0.014-66.282-14.225c-15.436-3.33-30.67 6.557-33.998 21.993l-15.738 73.445c-46.795 21.728-101.574 34.402-159.315 34.402-59.016 0-114.939-13.241-164.961-36.914l2.347 0.999-15.738-73.445c-3.33-15.436-18.462-25.323-33.897-21.993l-64.869 13.922c-11.675-12.032-22.655-24.931-32.762-38.518l-0.732-1.030h315.471c3.531 0 5.953-0.606 5.953-3.934v-111.58c0-3.229-2.422-3.934-5.953-3.934h-92.312zM269.369 792.565c16.934 0.505 30.468 14.353 30.468 31.362 0 0.004 0 0.010 0 0.014v-0.001c0 17.328-14.047 31.376-31.376 31.376s-31.376-14.047-31.376-31.376v0c0-0.004 0-0.009 0-0.013 0-17.328 14.047-31.376 31.376-31.376 0.319 0 0.637 0.004 0.955 0.014l-0.047-0.001zM733.949 793.978c16.934 0.505 30.468 14.353 30.468 31.362 0 0.004 0 0.010 0 0.014v-0.001c0 17.328-14.047 31.376-31.376 31.376s-31.376-14.047-31.376-31.376v0c0-0.004 0-0.009 0-0.013 0-17.328 14.047-31.376 31.376-31.376 0.319 0 0.637 0.004 0.955 0.014l-0.047-0.001z"></path>
<path stroke="#000" stroke-linejoin="round" stroke-linecap="round" stroke-miterlimit="4" stroke-width="21.3333" fill="#000" d="M952.671 501.406v0c0-248.669-201.587-450.256-450.256-450.256v0c-248.669 0-450.256 201.587-450.256 450.256v0c0 248.669 201.587 450.256 450.256 450.256v0c248.669 0 450.256-201.587 450.256-450.256zM944.197 457.924l70.216 43.482-70.216 43.482 60.329 56.395-77.279 28.955 48.224 67.090-81.617 13.317 34.302 75.261-82.626-2.925 18.967 80.508-80.508-18.967 2.925 82.626-75.261-34.302-13.317 81.617-67.090-48.224-28.955 77.279-56.395-60.329-43.482 70.216-43.482-70.216-56.395 60.329-28.955-77.279-67.090 48.224-13.317-81.617-75.261 34.302 2.925-82.626-80.508 18.967 18.967-80.508-82.626 2.925 34.302-75.261-81.617-13.317 48.224-67.090-77.279-28.955 60.329-56.395-70.216-43.482 70.216-43.482-60.329-56.395 77.279-28.955-48.224-67.090 81.617-13.317-34.302-75.261 82.626 2.925-18.967-80.508 80.508 18.967-2.925-82.626 75.261 34.302 13.317-81.617 67.090 48.224 28.955-77.279 56.395 60.329 43.482-70.216 43.482 70.216 56.395-60.329 28.955 77.279 67.090-48.224 13.317 81.617 75.261-34.302-2.925 82.626 80.508-18.967-18.967 80.508 82.626-2.925-34.302 75.261 81.617 13.317-48.224 67.090 77.279 28.955z"></path>
</svg>
