<!-- Generated by IcoMoon.io -->
<svg version="1.1" xmlns="http://www.w3.org/2000/svg" width="1536" height="1024" viewBox="0 0 1536 1024">
<title></title>
<g id="icomoon-ignore">
</g>
<path fill="#fff" d="M0 0h1536v1024h-1536z"></path>
<path fill="#000" d="M0 0h1536v21.333h-1536z"></path>
<path fill="#000" d="M0 1002.667h1536v21.333h-1536z"></path>
<path fill="#005a9c" d="M429.845 188.053l122.859 417.707 122.859-417.707h333.077v41.515l-125.397 216.043c44.053 14.144 77.376 39.851 99.968 77.12s33.899 81.045 33.899 131.307c0 62.144-16.512 114.389-49.557 156.757s-75.84 63.531-128.363 63.531c-39.552 0-74.005-12.565-103.36-37.696-29.376-25.131-51.115-59.157-65.237-102.101l69.461-28.8c10.176 25.984 23.595 46.464 40.256 61.419 16.661 14.976 36.288 22.443 58.88 22.443 23.723 0 43.776-13.269 60.16-39.808 16.384-26.56 24.576-58.453 24.576-95.744 0-41.237-8.768-73.152-26.261-95.744-20.352-26.539-52.267-39.808-95.765-39.808h-33.877v-40.661l118.635-205.056h-143.189l-8.149 13.867-174.144 587.691h-8.469l-127.104-425.301-127.104 425.323h-8.469l-203.328-686.293h88.96l122.859 417.707 83.051-281.28-40.661-136.427z"></path>
<path fill="#000" d="M1470.976 188.053c-17.472 0-33.152 6.293-45.035 18.368-12.608 12.8-19.627 29.355-19.627 46.464s6.677 32.96 18.923 45.397c12.437 12.608 28.459 19.456 45.76 19.456 16.917 0 33.323-6.848 46.101-19.264 12.245-11.883 18.901-27.755 18.901-45.589 0-17.301-6.848-33.493-18.731-45.568-12.437-12.608-28.651-19.264-46.293-19.264zM1527.36 253.44c0 14.955-5.781 28.821-16.405 39.083-11.157 10.816-25.024 16.576-40.341 16.576-14.4 0-28.629-5.931-39.253-16.747-10.624-10.795-16.576-24.683-16.576-39.445s6.123-29.184 17.109-40.341c10.261-10.453 24.128-16.021 39.253-16.021 15.488 0 29.355 5.781 40.171 16.747 10.453 10.432 16.043 24.491 16.043 40.149zM1472.789 214.891h-27.733v73.493h13.867v-31.339h13.696l14.955 31.339h15.488l-16.405-33.515c10.624-2.155 16.747-9.365 16.747-19.797 0-13.333-10.091-20.181-30.613-20.181zM1470.251 223.893c12.971 0 18.901 3.605 18.901 12.608 0 8.64-5.931 11.712-18.56 11.712h-11.712v-24.32z"></path>
<path fill="#000" d="M1361.899 184.192l14.421 87.616-51.008 97.6c0 0-19.584-41.408-52.117-64.32-27.413-19.307-45.269-23.509-73.195-17.749-35.861 7.403-76.523 50.283-94.272 103.147-21.227 63.253-21.44 93.867-22.187 121.984-1.195 45.077 5.909 71.723 5.909 71.723s-30.955-57.301-30.677-141.227c0.192-59.904 9.621-114.219 37.333-167.829 24.384-47.125 60.629-75.413 92.8-78.741 33.259-3.435 59.541 12.587 79.851 29.952 21.312 18.219 42.88 58.027 42.88 58.027z"></path>
<path fill="#000" d="M1368.192 679.936c0 0-22.549 40.299-36.587 55.829-14.059 15.531-39.189 42.88-70.229 56.555-31.061 13.675-47.317 16.256-77.995 13.312-30.656-2.944-59.157-20.693-69.141-28.096s-35.499-29.205-49.899-49.536c-14.421-20.352-36.971-60.992-36.971-60.992s12.565 40.768 20.437 58.048c4.523 9.941 18.432 40.405 38.187 66.901 18.389 24.725 54.165 67.285 108.501 76.885 54.336 9.621 91.669-14.784 100.907-20.715 9.237-5.909 28.715-22.208 41.045-35.392 12.864-13.76 25.045-31.317 31.787-41.856 4.928-7.68 12.949-23.296 12.949-23.296z"></path>
</svg>
